# xmcd
#
# Track frame offsets: 
#        150
#        16775
#        31720
#        45910
#        61853
#        75433
#        91413
#        105633
#        119658
#        133423
#        146580
#        159358
#        171288
#        180223
#
# Disc length: 2596 seconds
#
# Revision: 2
# Processed by: cddbd v1.5.2PL0 Copyright (c) Steve Scherf et al.
# Submitted via: ExactAudioCopy v1.0b4
#
DISCID=a50a220e
DTITLE=João Bandeira - Ontem, Hoje E Sempre - Vol Iii
DYEAR=2004
DGENRE=Popular
TTITLE0=Toalha De Mesa
TTITLE1=Brasa
TTITLE2=Só Quero Um Xodó
TTITLE3=Canto Para Um Amor Sem Fim
TTITLE4=Ai Que Saudade Da Amélia
TTITLE5=Forró Juan
TTITLE6=Volta Por Cima
TTITLE7=Meus Tempos De Criança
TTITLE8=Amor Fingido
TTITLE9=Cigarro Amigo
TTITLE10=Cintura Fina
TTITLE11=Mina Dançadeira
TTITLE12=Soladão Do João Bandeira
TTITLE13=Neném Mulher
EXTD=
EXTT0=
EXTT1=
EXTT2=
EXTT3=
EXTT4=
EXTT5=
EXTT6=
EXTT7=
EXTT8=
EXTT9=
EXTT10=
EXTT11=
EXTT12=
EXTT13=
PLAYORDER=
